# Made in Blockbench 4.2.2
mtllib robocock.mtl

o cube
v 0.125 0.5 0.25
v 0.125 0.5 -0.25
v 0.125 0 0.25
v 0.125 0 -0.25
v -0.125 0.5 0.25
v -0.125 0.5 -0.25
v -0.125 0 0.25
v -0.125 0 -0.25
v -0.25 0.6875 0.08124999999999999
v -0.25 0.6875 -0.08124999999999999
v -0.1875 0.1875 0.08124999999999999
v -0.1875 0.1875 -0.08124999999999999
v -0.375 0.6875 0.08124999999999999
v -0.375 0.6875 -0.08124999999999999
v -0.3125 0.1875 0.08124999999999999
v -0.3125 0.1875 -0.08124999999999999
v 0.24999999999999994 0.6875 -0.08125
v 0.25 0.6875 0.08124999999999998
v 0.18750000000000003 0.1875 -0.08124999999999993
v 0.18750000000000003 0.1875 0.08125000000000004
v 0.37499999999999994 0.6875 -0.08125000000000002
v 0.375 0.6875 0.08124999999999996
v 0.3125 0.1875 -0.08124999999999996
v 0.31250000000000006 0.1875 0.08125000000000002
v 0.25 0.34375 0.0625
v 0.25 0.34375 -0.0625
v 0.25 0.21875 0.0625
v 0.25 0.21875 -0.0625
v 0.125 0.34375 0.0625
v 0.125 0.34375 -0.0625
v 0.125 0.21875 0.0625
v 0.125 0.21875 -0.0625
v -0.125 0.34375 0.0625
v -0.125 0.34375 -0.0625
v -0.125 0.21875 0.0625
v -0.125 0.21875 -0.0625
v -0.25 0.34375 0.0625
v -0.25 0.34375 -0.0625
v -0.25 0.21875 0.0625
v -0.25 0.21875 -0.0625
v 0.1875 2 0.4375
v 0.1875 2 -0.75
v 0.1875 1.5 0.4375
v 0.1875 1.5 -0.4375
v -0.184375 2 0.4375
v -0.171875 2 -0.75
v -0.171875 1.5 -0.4375
v 0.25 1.9375 0.4375
v 0.25 1.9375 -0.65625
v -0.25 1.9375 -0.65625
v -0.25 1.9375 0.4375
v 0.25 1.546875 0.4375
v 0.25 1.546875 -0.515625
v -0.25 1.546875 -0.515625
v -0.25 1.546875 0.4375
v 0.1875 1.9375 0.4375
v 0.1875 2 0.4375
v 0.1875 2 -0.75
v 0.1875 1.9375 -0.65625
v 0.1875 1.546875 -0.515625
v 0.1875 1.5 -0.4375
v 0.1875 1.5 0.4375
v 0.1875 1.546875 0.4375
v -0.1875 1.9375 0.4375
v -0.1875 1.546875 0.4375
v -0.184375 1.5 0.4375
v -0.1875 1.546875 -0.515625
v -0.1875 1.9375 -0.65625
v 0.125 1.875 0.3125
v -0.125 1.875 0.3125
v -0.125 1.609375 0.3125
v 0.125 1.609375 0.3125
v 0.125 1.5 0.3125
v 0.125 1.5 -0.3125
v 0.4375 0.6875 0.375
v 0.4375 0.6875 -0.375
v -0.125 1.5 0.3125
v -0.125 1.5 -0.3125
v -0.4375 0.6875 0.375
v -0.4375 0.6875 -0.375
v 0.25 1.21875 0.25
v 0.25 1.21875 -0.25
v -0.25 1.21875 -0.25
v -0.25 1.21875 0.25
vt 0.3125 1
vt 0.1875 1
vt 0.1875 0.875
vt 0.3125 0.875
vt 0.578125 0.5
vt 0.578125 0.625
vt 0.453125 0.625
vt 0.453125 0.5
vt 0.15625 0.296875
vt 0.21875 0.296875
vt 0.21875 0.421875
vt 0.15625 0.421875
vt 0.28125 0.296875
vt 0.28125 0.421875
vt 0.21875 0.421875
vt 0.21875 0.296875
vt 0.34375 0.296875
vt 0.34375 0.421875
vt 0.28125 0.421875
vt 0.28125 0.296875
vt 0.640625 0.625
vt 0.578125 0.625
vt 0.578125 0.5
vt 0.640625 0.5
vt 0.625 0.5
vt 0.578125 0.5
vt 0.578125 0.375
vt 0.625 0.375
vt 0.5 0.265625
vt 0.5 0.390625
vt 0.453125 0.390625
vt 0.453125 0.265625
vt 0.203125 0.828125
vt 0.234375 0.828125
vt 0.234375 0.875
vt 0.203125 0.875
vt 0.1875 0.515625
vt 0.1875 0.5625
vt 0.15625 0.5625
vt 0.15625 0.515625
vt 0.34375 0.8701511372269224
vt 0.34375 0.9961239145440872
vt 0.3125 1
vt 0.3125 0.8740272226828352
vt 0.765625 0.84375
vt 0.7617489145440872 0.875
vt 0.6357761372269224 0.875
vt 0.6396522226828352 0.84375
vt 0.546875 0.390625
vt 0.5 0.390625
vt 0.5 0.265625
vt 0.546875 0.265625
vt 0.671875 0.875
vt 0.671875 1
vt 0.625 1
vt 0.625 0.875
vt 0.609375 0.375
vt 0.578125 0.375
vt 0.578125 0.328125
vt 0.609375 0.328125
vt 0.609375 0.375
vt 0.609375 0.328125
vt 0.640625 0.328125
vt 0.640625 0.375
vt 0.578125 0.25
vt 0.578125 0.37597277731716483
vt 0.546875 0.3798488627730776
vt 0.546875 0.2538760854559128
vt 0.765625 0.46875
vt 0.7617489145440872 0.5
vt 0.6357761372269224 0.5
vt 0.6396522226828352 0.46875
vt 0.0625 1
vt 0.03125 1
vt 0.03125 0.96875
vt 0.0625 0.96875
vt 0.1875 0.96875
vt 0.1875 1
vt 0.15625 1
vt 0.15625 0.96875
vt 0.171875 0.734375
vt 0.203125 0.734375
vt 0.203125 0.765625
vt 0.171875 0.765625
vt 0.671875 0.5625
vt 0.671875 0.59375
vt 0.640625 0.59375
vt 0.640625 0.5625
vt 0.671875 0.53125
vt 0.671875 0.5625
vt 0.640625 0.5625
vt 0.640625 0.53125
vt 0.671875 0.53125
vt 0.640625 0.53125
vt 0.640625 0.5
vt 0.671875 0.5
vt 0.671875 0.359375
vt 0.640625 0.359375
vt 0.640625 0.328125
vt 0.671875 0.328125
vt 0.375 0.3125
vt 0.375 0.34375
vt 0.34375 0.34375
vt 0.34375 0.3125
vt 0.375 0.3125
vt 0.40625 0.3125
vt 0.40625 0.34375
vt 0.375 0.34375
vt 0.4375 0.3125
vt 0.4375 0.34375
vt 0.40625 0.34375
vt 0.40625 0.3125
vt 0.6875 0.4375
vt 0.6875 0.46875
vt 0.65625 0.46875
vt 0.65625 0.4375
vt 0.6875 0.4375
vt 0.65625 0.4375
vt 0.65625 0.40625
vt 0.6875 0.40625
vt 0.79296875 0.8125
vt 0.8125 0.828125
vt 0.57421875 0.828125
vt 0.57421875 0.8125
vt 0.02016242846320576 0.554028125
vt 0 0.5539744154467621
vt 0.0006347416978281367 0.31569401087152316
vt 0.023287320633303174 0.33528567309317325
vt 0 1
vt 0 0.703125
vt 0 1
vt 0 0.703125
vt 0 0.78125
vt 0 1
vt 0 0.78125
vt 0 1
vt 0.17812499999999998 0.96875
vt 0.17812499999999998 0.94921875
vt 0.1875 0.95625
vt 0.17812499999999998 0.94921875
vt 0.234375 0.8627989248524526
vt 0.24962634393443417 0.875
vt 0.234375 0.859375
vt 0.25938720405247206 0.859375
vt 0.5625 0.84375
vt 0.5625 0.828125
vt 0.8359375 0.828125
vt 0.859375 0.84375
vt 0.046875 0.9365379044214368
vt 0.046875 0.96875
vt 0.03125 0.9441170643802961
vt 0.044913709573831784 0.96875
vt 0.15625 0.5625
vt 0.125 0.5388576698493456
vt 0.12724786811835337 0.2654294096142842
vt 0.15625 0.2656149679162141
vt 0.03125 0.890625
vt 0.03125 0.90625
vt 0.015625 0.890625
vt 0.4609375 0.71875
vt 0.4609375 0.625
vt 0.69921875 0.625
vt 0.734375 0.71875
vt 0.453125 0.390625
vt 0.46875 0.390625
vt 0.46875 0.4944171875000001
vt 0.453125 0.4944171875000001
vt 0.359375 0.8125
vt 0.39453125 0.71875
vt 0.640625 0.71875
vt 0.640625 0.8125
vt 0.015625 0.78125
vt 0 0.78125
vt 0 0.6875
vt 0.015625 0.6875
vt 0.390625 0.65625
vt 0.4019396551724138 0.6454741379310345
vt 0.41328125000000004 0.65625
vt 0.015624999999999944 0.8780275174586054
vt 0.002784609231283375 0.8526530887846104
vt 0.015625 0.84375
vt 0.578125 0.4944171875000001
vt 0.5625 0.4944171875000001
vt 0.5625 0.390625
vt 0.578125 0.390625
vt 0.296875 0.859375
vt 0.2867042407204785 0.8712365463021492
vt 0.26686978870132516 0.859375
vt 0.44041041451239477 0.65625
vt 0.4329633001553688 0.647168153223139
vt 0.453125 0.6471681532231391
vt 0.34375 0.53125
vt 0.359375 0.53125
vt 0.359375 0.625
vt 0.34375 0.625
vt 0.734375 0.625
vt 0.64140625 0.625
vt 0.640625 0.609375
vt 0.734375 0.609375
vt 0.453125 0.71875
vt 0.390625 0.71875
vt 0.390625 0.65625
vt 0.453125 0.65625
vt 0.734375 0.609375
vt 0.640625 0.609375
vt 0.64140625 0.59375
vt 0.734375 0.59375
vt 0.11313117846320575 0.554028125
vt 0.020162428463205748 0.554028125
vt 0.02328742846320575 0.335278125
vt 0.11313117846320575 0.335278125
vt 0.11313117846320575 0.335278125
vt 0.02328742846320575 0.335278125
vt 0.01938117846320575 0.3125
vt 0.11313117846320575 0.3125
vt 0.46875 0.390625
vt 0.5625 0.390625
vt 0.5625 0.4944171875000001
vt 0.46875 0.4944171875000001
vt 0.640625 0.71875
vt 0.734375 0.71875
vt 0.73046875 0.75
vt 0.640625 0.75
vt 0.453125 0.640625
vt 0.3625 0.640625
vt 0.359375 0.34375
vt 0.453125 0.34375
vt 0.65625 0.78125
vt 0.71875 0.78125
vt 0.734375 0.8125
vt 0.640625 0.8125
vt 0.03125 0.91796875
vt 0.03125 0.984375
vt 0 1
vt 0 0.90234375
vt 0.71875 0.78125
vt 0.65625 0.78125
vt 0.640625 0.75
vt 0.734375 0.75
vt 0.625 0.453125
vt 0.625 0.38671875
vt 0.65625 0.37109375
vt 0.65625 0.46875
vt 0.015625 0.890625
vt 0.015625 0.875
vt 0.03125 0.875
vt 0.1875 0.5634656250000001
vt 0.15625 0.70430625
vt 0.03125 0.70430625
vt 0 0.5634656250000001
vt 0.359375 0.4228406250000001
vt 0.328125 0.56368125
vt 0.203125 0.56368125
vt 0.171875 0.4228406250000001
vt 0.5625 0.84375
vt 0.625 0.84375
vt 0.625 1
vt 0.5625 1
vt 0.5625 0.8125
vt 0.5625 1
vt 0.34375 1
vt 0.34375 0.8125
vt 0.390625 0.640625
vt 0.34375 0.7770640625
vt 0.21875 0.7770640625
vt 0.171875 0.640625
vt 0.21875 0.78125
vt 0.171875 0.9176890625
vt 0.046875 0.9176890625
vt 0 0.78125
vt 0.015625 0.78125
vt 0.03125 0.70430625
vt 0.15625 0.70430625
vt 0.171875 0.78125
vt 0.078125 0.989715625
vt 0.046875 0.9176890625
vt 0.171875 0.9176890625
vt 0.140625 0.989715625
vt 0.1875 0.640625
vt 0.203125 0.56368125
vt 0.328125 0.56368125
vt 0.34375 0.640625
vt 0.25 0.849090625
vt 0.21875 0.7770640625
vt 0.34375 0.7770640625
vt 0.3125 0.849090625
vn 1 0 0
vn -1 0 0
vn 0 1 0
vn 0 -1 0
vn 0 0 1
vn 0 0 -1
vn 0.9922778767136677 0.12403473458920847 0
vn -0.9922778767136677 -0.12403473458920847 0
vn 0 1 0
vn 0 -1 0
vn 0 0 1
vn 0 0 -1
vn -0.9922778767136677 0.1240347345892083 3.389691524780543e-16
vn 0.9922778767136677 -0.12403473458920836 -3.389691524780543e-16
vn 0 1 0
vn 0 -1 0
vn -1.1102230246251565e-16 -1.249000902703301e-16 -1
vn 1.1102230246251565e-16 1.249000902703301e-16 1
vn 1 0 0
vn -1 0 0
vn 0 1 0
vn 0 -1 0
vn 0 0 1
vn 0 0 -1
vn 1 0 0
vn -1 0 0
vn 0 1 0
vn 0 -1 0
vn 0 0 1
vn 0 0 -1
vn 0.6 -0.8 0
vn -0.5812381937190966 -0.813733471206735 0
vn 0 0 0
vn 0 0 0
vn 0 0 -1
vn 0 0 0
vn 0.7071067811865476 0.7071067811865476 0
vn 0 0.8320502943378437 0.5547001962252291
vn -0.6246950475544243 0.7808688094430304 0
vn 0 0 -1
vn 1 0 0
vn 0 -0.33871946827274163 -0.9408874118687268
vn -1 0 0
vn 0 0 1
vn 0 0 1
vn 0 -0.8320502943378437 -0.5547001962252291
vn 0 -0.33871946827274163 -0.9408874118687268
vn 0 -0.8574929257125443 -0.5144957554275266
vn 0 0 -1
vn 0 0 1
vn 0 0 1
vn 0 0 1
vn 0 0 1
vn 0 -1 0
vn 0 -0.8574929257125442 -0.5144957554275266
vn 0 -0.33871946827274163 -0.9408874118687268
vn 0 -0.8320502943378438 -0.5547001962252291
vn 0 1 0
vn 0 -0.8944271909999161 0.44721359549995804
vn 0.894427190999916 0 0.447213595499958
vn 0 0.8944271909999161 0.44721359549995804
vn -0.894427190999916 0 0.447213595499958
vn 0 0 1
vn 0.9429903335828895 0.3328201177351375 0
vn -0.9429903335828895 0.3328201177351375 0
vn 0 1 0
vn 0 -1 0
vn 0 0.2290393337255473 0.973417168333576
vn 0 0.2290393337255473 -0.973417168333576
vn 0.9138115486202573 0.40613846605344767 0
vn 0 -0.21693045781865616 -0.9761870601839528
vn -0.9138115486202573 0.40613846605344767 0
vn 0 -0.21693045781865616 0.9761870601839528
usemtl m_2
f 2/1/1 1/2/1 3/3/1 4/4/1
f 7/5/2 5/6/2 6/7/2 8/8/2
f 5/9/3 1/10/3 2/11/3 6/12/3
f 4/13/4 3/14/4 7/15/4 8/16/4
f 3/17/5 1/18/5 5/19/5 7/20/5
f 6/21/6 2/22/6 4/23/6 8/24/6
f 10/25/7 9/26/7 11/27/7 12/28/7
f 15/29/8 13/30/8 14/31/8 16/32/8
f 13/33/9 9/34/9 10/35/9 14/36/9
f 12/37/10 11/38/10 15/39/10 16/40/10
f 11/41/11 9/42/11 13/43/11 15/44/11
f 14/45/12 10/46/12 12/47/12 16/48/12
f 18/49/13 17/50/13 19/51/13 20/52/13
f 23/53/14 21/54/14 22/55/14 24/56/14
f 21/57/15 17/58/15 18/59/15 22/60/15
f 20/61/16 19/62/16 23/63/16 24/64/16
f 19/65/17 17/66/17 21/67/17 23/68/17
f 22/69/18 18/70/18 20/71/18 24/72/18
f 26/73/19 25/74/19 27/75/19 28/76/19
f 31/77/20 29/78/20 30/79/20 32/80/20
f 29/81/21 25/82/21 26/83/21 30/84/21
f 28/85/22 27/86/22 31/87/22 32/88/22
f 27/89/23 25/90/23 29/91/23 31/92/23
f 30/93/24 26/94/24 28/95/24 32/96/24
f 34/97/25 33/98/25 35/99/25 36/100/25
f 39/101/26 37/102/26 38/103/26 40/104/26
f 37/105/27 33/106/27 34/107/27 38/108/27
f 36/109/28 35/110/28 39/111/28 40/112/28
f 35/113/29 33/114/29 37/115/29 39/116/29
f 38/117/30 34/118/30 36/119/30 40/120/30
f 44/121/31 53/122/31 52/123/31 43/124/31
f 66/125/32 55/126/32 54/127/32 47/128/32
f 42/129/33 57/130/33 58/131/33 41/132/33
f 43/133/34 61/134/34 62/135/34 44/136/34
f 52/137/35 62/138/35 63/139/35 43/140/35
f 44/141/36 60/142/36 61/143/36 53/144/36
f 41/145/37 48/146/37 49/147/37 42/148/37
f 49/149/38 58/150/38 59/151/38 42/152/38
f 46/153/39 50/154/39 51/155/39 45/156/39
f 56/157/40 57/158/40 48/159/40
f 48/160/41 52/161/41 53/162/41 49/163/41
f 53/164/42 60/165/42 59/166/42 49/167/42
f 50/168/43 54/169/43 55/170/43 51/171/43
f 48/172/44 56/173/44 63/174/44 52/175/44
f 51/176/45 64/177/45 45/178/45
f 46/179/46 68/180/46 50/181/46
f 50/182/47 68/183/47 67/184/47 54/185/47
f 54/186/48 67/187/48 47/188/48
f 65/189/49 66/190/49 55/191/49
f 55/192/50 65/193/50 64/194/50 51/195/50
f 57/196/51 45/197/51 64/198/51 56/199/51
f 69/200/52 70/201/52 71/202/52 72/203/52
f 63/204/53 65/205/53 66/206/53 62/207/53
f 62/208/54 66/209/54 47/210/54 61/211/54
f 61/212/55 47/213/55 67/214/55 60/215/55
f 60/216/56 67/217/56 68/218/56 59/219/56
f 59/220/57 68/221/57 46/222/57 58/223/57
f 58/224/58 46/225/58 45/226/58 57/227/58
f 70/228/59 69/229/59 56/230/59 64/231/59
f 71/232/60 70/233/60 64/234/60 65/235/60
f 72/236/61 71/237/61 65/238/61 63/239/61
f 69/240/62 72/241/62 63/242/62 56/243/62
f 41/244/63 56/245/63 48/246/63
f 76/247/64 82/248/64 81/249/64 75/250/64
f 79/251/65 84/252/65 83/253/65 80/254/65
f 77/255/66 73/256/66 74/257/66 78/258/66
f 76/259/67 75/260/67 79/261/67 80/262/67
f 75/263/68 81/264/68 84/265/68 79/266/68
f 80/267/69 83/268/69 82/269/69 76/270/69
f 73/271/70 81/272/70 82/273/70 74/274/70
f 74/275/71 82/276/71 83/277/71 78/278/71
f 78/279/72 83/280/72 84/281/72 77/282/72
f 77/283/73 84/284/73 81/285/73 73/286/73